# xmcd CD database file
#
# Track frame offsets:
#	150
#	14110
#	29604
#	50348
#	64099
#	76029
#	97657
#	103550
#	113232
#	121478
#	133321
#	145479
#	155586
#	166616
#	179623
#	192667
#	204521
#	213561
#	219760
#	232827
#	241108
#	252874
#	269038
#	291351
#
# Disc length: 4133 seconds
#
# Revision: 0
# Processed by: cddbd v1.5.2PL0 Copyright (c) Steve Scherf et al.
# Submitted via: CDex 1.77
#
DISCID=63102318
DTITLE=Morehead Old Time Music Festival - Festival Favorites, Volume 1
DYEAR=2012
DGENRE=Country
TTITLE0=Kentucky Wild Horse - Squirrel Hunters (2006)
TTITLE1=Clack Mountain String Band - Rose Connelly (2006)
TTITLE2=Paul David Smith - I'll Be All Smiles Tonight (2008)
TTITLE3=Jack Helton - Dark Holler (2012)
TTITLE4=Karly Dawn Higgins - Undone in Sorrow (2012)
TTITLE5=Bruce Greene - 'fiddle tale' (2012)
TTITLE6=Bruce Greene - John, John, Don't Get Drunk (2012)
TTITLE7=John Haywood - Sugar Babe (2008)
TTITLE8=Anna Roberts Gevalt - Susan's Gone (2009)
TTITLE9=The Railsplitters - Hightop Shoes (2012)
TTITLE10=Sarah Wood - Soldier Traveling from the North (2012)
TTITLE11=Matt Kinman - Reuben's Train (2008)
TTITLE12=Meghan Bryant - Martha Campbell (2012)
TTITLE13=Nathan Kiser - Duck River (2009)
TTITLE14=The Kentucky Clodhoppers - John Henry (2006)
TTITLE15=Nikos Pappas - Hell and Scissors (2012)
TTITLE16=Brett Ratliff - Rocky Island (2012)
TTITLE17=Don Rogers - Gate (2009)
TTITLE18=Paul David Smith (banjo), with Dave Wells and Jesse Wells - Cumberland Gap (2009)
TTITLE19=Logan Dollarhide - Onion Tops and Turnip Greens (2011)
TTITLE20=Ponty's Camper - Old Coal Mine (2008)
TTITLE21=Fiddlers Tribute to Paul David Smith - Rock Andy (2012)
TTITLE22=Camp Ground Jam - Goodbye Girls I'm Going to Boston (2009)
TTITLE23=Kay Stamper - Evening Bells Are Ringing (2008)
EXTD=YEAR: 2012
EXTT0=
EXTT1=
EXTT2=
EXTT3=
EXTT4=
EXTT5=
EXTT6=
EXTT7=
EXTT8=
EXTT9=
EXTT10=
EXTT11=
EXTT12=
EXTT13=
EXTT14=
EXTT15=
EXTT16=
EXTT17=
EXTT18=
EXTT19=
EXTT20=
EXTT21=
EXTT22=
EXTT23=
PLAYORDER=
